HIERARCHY
ROOT Hips
{
  OFFSET 347.361 87.9447 215.108
  CHANNELS 6 Xposition Yposition Zposition Zrotation Xrotation Yrotation
  JOINT RightUpLeg
  {
    OFFSET -9.26273 -1.5987 0.0275938
    CHANNELS 6 Xposition Yposition Zposition Zrotation Xrotation Yrotation
    JOINT RightLeg
    {
      OFFSET 0.028019 -41.8971 0.019883
      CHANNELS 6 Xposition Yposition Zposition Zrotation Xrotation Yrotation
      JOINT RightFoot
      {
        OFFSET 0.348771 -42.3721 0.821663
        CHANNELS 6 Xposition Yposition Zposition Zrotation Xrotation Yrotation
        End Site
        {
          OFFSET 0 -7.69 17.5
        }
      }
    }
  }
  JOINT LeftUpLeg
  {
    OFFSET 9.27388 -1.59201 -0.047544
    CHANNELS 6 Xposition Yposition Zposition Zrotation Xrotation Yrotation
    JOINT LeftLeg
    {
      OFFSET 0.052168 -41.8958 0.0537944
      CHANNELS 6 Xposition Yposition Zposition Zrotation Xrotation Yrotation
      JOINT LeftFoot
      {
        OFFSET 0.216535 -41.5604 -0.688939
        CHANNELS 6 Xposition Yposition Zposition Zrotation Xrotation Yrotation
        End Site
        {
          OFFSET 0 -7.69 17.5
        }
      }
    }
  }
  JOINT Spine
  {
    OFFSET 0.0383244 14.3029 0.0425452
    CHANNELS 6 Xposition Yposition Zposition Zrotation Xrotation Yrotation
    JOINT Spine1
    {
      OFFSET 0.0211658 9.70598 0.00781995
      CHANNELS 6 Xposition Yposition Zposition Zrotation Xrotation Yrotation
      JOINT Spine2
      {
        OFFSET 0.0410706 10.115 0.0227486
        CHANNELS 6 Xposition Yposition Zposition Zrotation Xrotation Yrotation
        JOINT Spine3
        {
          OFFSET 0.0474968 9.71803 0.0270037
          CHANNELS 6 Xposition Yposition Zposition Zrotation Xrotation Yrotation
          JOINT Neck
          {
            OFFSET 0.0485557 10.3921 0.0356073
            CHANNELS 6 Xposition Yposition Zposition Zrotation Xrotation Yrotation
            JOINT Head
            {
              OFFSET 0.0332182 9.46535 0.0161552
              CHANNELS 6 Xposition Yposition Zposition Zrotation Xrotation Yrotation
              End Site
              {
                OFFSET 0 15.95 0
              }
            }
          }
          JOINT RightShoulder
          {
            OFFSET -3.19358 6.92903 -0.0134906
            CHANNELS 6 Xposition Yposition Zposition Zrotation Xrotation Yrotation
            JOINT RightArm
            {
              OFFSET -12.7846 -0.00272034 -0.00944064
              CHANNELS 6 Xposition Yposition Zposition Zrotation Xrotation Yrotation
              JOINT RightForeArm
              {
                OFFSET -26.5055 -0.0224929 0.077677
                CHANNELS 6 Xposition Yposition Zposition Zrotation Xrotation Yrotation
                JOINT RightHand
                {
                  OFFSET -25.9958 0.000824859 0.0512335
                  CHANNELS 6 Xposition Yposition Zposition Zrotation Xrotation Yrotation
                  JOINT RightHandThumb1
                  {
                    OFFSET -2.48905 0.190105 3.12053
                    CHANNELS 6 Xposition Yposition Zposition Zrotation Xrotation Yrotation
                    JOINT RightHandThumb2
                    {
                      OFFSET -3.68274 0 0
                      CHANNELS 6 Xposition Yposition Zposition Zrotation Xrotation Yrotation
                      JOINT RightHandThumb3
                      {
                        OFFSET -2.55832 0 0
                        CHANNELS 6 Xposition Yposition Zposition Zrotation Xrotation Yrotation
                        End Site
                        {
                          OFFSET -2.194 0 0
                        }
                      }
                    }
                  }
                  JOINT RightInHandIndex
                  {
                    OFFSET -3.22368 0.508421 1.97842
                    CHANNELS 6 Xposition Yposition Zposition Zrotation Xrotation Yrotation
                    JOINT RightHandIndex1
                    {
                      OFFSET -5.21684 -0.091368 0.999158
                      CHANNELS 6 Xposition Yposition Zposition Zrotation Xrotation Yrotation
                      JOINT RightHandIndex2
                      {
                        OFFSET -3.61937 0 0
                        CHANNELS 6 Xposition Yposition Zposition Zrotation Xrotation Yrotation
                        JOINT RightHandIndex3
                        {
                          OFFSET -2.0521 0 0
                          CHANNELS 6 Xposition Yposition Zposition Zrotation Xrotation Yrotation
                          End Site
                          {
                            OFFSET -1.805 0 0
                          }
                        }
                      }
                    }
                  }
                  JOINT RightInHandMiddle
                  {
                    OFFSET -3.38211 0.517263 0.756737
                    CHANNELS 6 Xposition Yposition Zposition Zrotation Xrotation Yrotation
                    JOINT RightHandMiddle1
                    {
                      OFFSET -5.17411 -0.084 0.313895
                      CHANNELS 6 Xposition Yposition Zposition Zrotation Xrotation Yrotation
                      JOINT RightHandMiddle2
                      {
                        OFFSET -3.94947 0 0
                        CHANNELS 6 Xposition Yposition Zposition Zrotation Xrotation Yrotation
                        JOINT RightHandMiddle3
                        {
                          OFFSET -2.47579 0 0
                          CHANNELS 6 Xposition Yposition Zposition Zrotation Xrotation Yrotation
                          End Site
                          {
                            OFFSET -1.975 0 0
                          }
                        }
                      }
                    }
                  }
                  JOINT RightInHandRing
                  {
                    OFFSET -3.36516 0.537895 -0.128947
                    CHANNELS 6 Xposition Yposition Zposition Zrotation Xrotation Yrotation
                    JOINT RightHandRing1
                    {
                      OFFSET -4.63474 -0.022105 -0.478947
                      CHANNELS 6 Xposition Yposition Zposition Zrotation Xrotation Yrotation
                      JOINT RightHandRing2
                      {
                        OFFSET -3.44238 0 0
                        CHANNELS 6 Xposition Yposition Zposition Zrotation Xrotation Yrotation
                        JOINT RightHandRing3
                        {
                          OFFSET -2.3881 0 0
                          CHANNELS 6 Xposition Yposition Zposition Zrotation Xrotation Yrotation
                          End Site
                          {
                            OFFSET -1.857 0 0
                          }
                        }
                      }
                    }
                  }
                  JOINT RightInHandPinky
                  {
                    OFFSET -3.16105 0.469368 -1.20179
                    CHANNELS 6 Xposition Yposition Zposition Zrotation Xrotation Yrotation
                    JOINT RightHandPinky1
                    {
                      OFFSET -4.14105 -0.022105 -1.09053
                      CHANNELS 6 Xposition Yposition Zposition Zrotation Xrotation Yrotation
                      JOINT RightHandPinky2
                      {
                        OFFSET -2.75653 0 0
                        CHANNELS 6 Xposition Yposition Zposition Zrotation Xrotation Yrotation
                        JOINT RightHandPinky3
                        {
                          OFFSET -1.74189 0 0
                          CHANNELS 6 Xposition Yposition Zposition Zrotation Xrotation Yrotation
                          End Site
                          {
                            OFFSET -1.645 0 0
                          }
                        }
                      }
                    }
                  }
                }
              }
            }
          }
          JOINT LeftShoulder
          {
            OFFSET 3.25013 6.93947 -0.0102751
            CHANNELS 6 Xposition Yposition Zposition Zrotation Xrotation Yrotation
            JOINT LeftArm
            {
              OFFSET 12.7758 -0.0145532 -0.0598374
              CHANNELS 6 Xposition Yposition Zposition Zrotation Xrotation Yrotation
              JOINT LeftForeArm
              {
                OFFSET 26.507 -0.0319068 0.00271185
                CHANNELS 6 Xposition Yposition Zposition Zrotation Xrotation Yrotation
                JOINT LeftHand
                {
                  OFFSET 25.9936 -0.0554971 -0.000968744
                  CHANNELS 6 Xposition Yposition Zposition Zrotation Xrotation Yrotation
                  JOINT LeftHandThumb1
                  {
                    OFFSET 2.48905 0.190105 3.12053
                    CHANNELS 6 Xposition Yposition Zposition Zrotation Xrotation Yrotation
                    JOINT LeftHandThumb2
                    {
                      OFFSET 3.68274 0 0
                      CHANNELS 6 Xposition Yposition Zposition Zrotation Xrotation Yrotation
                      JOINT LeftHandThumb3
                      {
                        OFFSET 2.55832 0 0
                        CHANNELS 6 Xposition Yposition Zposition Zrotation Xrotation Yrotation
                        End Site
                        {
                          OFFSET 2.194 0 0
                        }
                      }
                    }
                  }
                  JOINT LeftInHandIndex
                  {
                    OFFSET 3.22368 0.508421 1.97842
                    CHANNELS 6 Xposition Yposition Zposition Zrotation Xrotation Yrotation
                    JOINT LeftHandIndex1
                    {
                      OFFSET 5.21684 -0.091368 0.999158
                      CHANNELS 6 Xposition Yposition Zposition Zrotation Xrotation Yrotation
                      JOINT LeftHandIndex2
                      {
                        OFFSET 3.61937 0 0
                        CHANNELS 6 Xposition Yposition Zposition Zrotation Xrotation Yrotation
                        JOINT LeftHandIndex3
                        {
                          OFFSET 2.0521 0 0
                          CHANNELS 6 Xposition Yposition Zposition Zrotation Xrotation Yrotation
                          End Site
                          {
                            OFFSET 1.805 0 0
                          }
                        }
                      }
                    }
                  }
                  JOINT LeftInHandMiddle
                  {
                    OFFSET 3.38211 0.517263 0.756737
                    CHANNELS 6 Xposition Yposition Zposition Zrotation Xrotation Yrotation
                    JOINT LeftHandMiddle1
                    {
                      OFFSET 5.17411 -0.084 0.313895
                      CHANNELS 6 Xposition Yposition Zposition Zrotation Xrotation Yrotation
                      JOINT LeftHandMiddle2
                      {
                        OFFSET 3.94947 0 0
                        CHANNELS 6 Xposition Yposition Zposition Zrotation Xrotation Yrotation
                        JOINT LeftHandMiddle3
                        {
                          OFFSET 2.47579 0 0
                          CHANNELS 6 Xposition Yposition Zposition Zrotation Xrotation Yrotation
                          End Site
                          {
                            OFFSET 1.975 0 0
                          }
                        }
                      }
                    }
                  }
                  JOINT LeftInHandRing
                  {
                    OFFSET 3.36516 0.537895 -0.128947
                    CHANNELS 6 Xposition Yposition Zposition Zrotation Xrotation Yrotation
                    JOINT LeftHandRing1
                    {
                      OFFSET 4.63474 -0.022105 -0.478947
                      CHANNELS 6 Xposition Yposition Zposition Zrotation Xrotation Yrotation
                      JOINT LeftHandRing2
                      {
                        OFFSET 3.44238 0 0
                        CHANNELS 6 Xposition Yposition Zposition Zrotation Xrotation Yrotation
                        JOINT LeftHandRing3
                        {
                          OFFSET 2.3881 0 0
                          CHANNELS 6 Xposition Yposition Zposition Zrotation Xrotation Yrotation
                          End Site
                          {
                            OFFSET 1.857 0 0
                          }
                        }
                      }
                    }
                  }
                  JOINT LeftInHandPinky
                  {
                    OFFSET 3.16105 0.469368 -1.20179
                    CHANNELS 6 Xposition Yposition Zposition Zrotation Xrotation Yrotation
                    JOINT LeftHandPinky1
                    {
                      OFFSET 4.14105 -0.022105 -1.09053
                      CHANNELS 6 Xposition Yposition Zposition Zrotation Xrotation Yrotation
                      JOINT LeftHandPinky2
                      {
                        OFFSET 2.75653 0 0
                        CHANNELS 6 Xposition Yposition Zposition Zrotation Xrotation Yrotation
                        JOINT LeftHandPinky3
                        {
                          OFFSET 1.74189 0 0
                          CHANNELS 6 Xposition Yposition Zposition Zrotation Xrotation Yrotation
                          End Site
                          {
                            OFFSET 1.645 0 0
                          }
                        }
                      }
                    }
                  }
                }
              }
            }
          }
        }
      }
    }
  }
}
MOTION
Frames:	3
Frame Time:	0.00833333
347.361 87.9447 215.108 27.9521 12.8315 -66.4132 -9.26273 -1.5987 0.0275938 -33.7915 -50.412 -40.7007 0.028019 -41.8971 0.019883 0.64797 24.9953 -7.69413 0.348771 -42.3721 0.821663 11.5367 4.70757 21.277 9.27388 -1.59201 -0.047544 19.1502 -49.5848 6.9731 0.052168 -41.8958 0.0537944 1.5498 29.8641 -1.94466 0.216535 -41.5604 -0.688939 -15.1762 -9.7183 -16.7716 0.0383244 14.3029 0.0425452 -12.8423 9.12826 19.9009 0.0211658 9.70598 0.00781995 -2.93598 3.02898 4.69396 0.0410706 10.115 0.0227486 -4.80943 5.08291 7.38894 0.0474968 9.71803 0.0270037 0.293801 -0.549887 -0.888398 0.0485557 10.3921 0.0356073 0.295525 -0.548484 -0.894049 0.0332182 9.46535 0.0161552 4.10356 -10.2024 -15.9164 -3.19358 6.92903 -0.0134906 5.28209 -14.9054 12.8599 -12.7846 -0.00272034 -0.00944064 71.119 2.43827 52.262 -26.5055 -0.0224929 0.077677 10.7841 -50.3557 -0.894358 -25.9958 0.000824859 0.0512335 16.5539 -27.0743 -22.7711 -2.48905 0.190105 3.12053 28.184 10.7294 19.1592 -3.68274 -2.84217e-14 -5.68434e-14 2.23269e-14 -1.59028e-15 -10 -2.55832 -1.42109e-14 5.68434e-14 2.94921e-15 -1.59028e-15 -10 -3.22368 0.508421 1.97842 -3.18055e-15 6.36111e-15 -1.59028e-15 -5.21684 -0.091368 0.999158 19.9818 0.871897 2.3964 -3.61937 0 2.84217e-14 24 6.36111e-15 3.49861e-14 -2.0521 -1.42109e-14 2.84217e-14 20 1.98785e-15 2.22639e-14 -3.38211 0.517263 0.756737 -3.18055e-15 6.36111e-15 -1.59028e-15 -5.17411 -0.084 0.313895 20 -1.59028e-15 1.27222e-14 -3.94947 0 -5.68434e-14 24 3.18055e-15 2.22639e-14 -2.47579 2.84217e-14 -5.68434e-14 20 1.27222e-14 2.8625e-14 -3.36516 0.537895 -0.128947 -3.18055e-15 6.36111e-15 -1.59028e-15 -4.63474 -0.022105 -0.478947 19.9748 -1.02565 -2.81938 -3.44238 0 0 24 4.77083e-15 1.27222e-14 -2.3881 0 2.84217e-14 20 -2.98177e-15 1.27222e-14 -3.16105 0.469368 -1.20179 -3.18055e-15 6.36111e-15 -1.59028e-15 -4.14105 -0.022105 -1.09053 19.7815 -3.00948 -8.30515 -2.75653 0 5.68434e-14 24 -1.59028e-15 1.59028e-14 -1.74189 0 -2.84217e-14 20 3.57812e-15 1.59028e-14 3.25013 6.93947 -0.0102751 17.0347 -14.3286 -31.492 12.7758 -0.0145532 -0.0598374 -40.6211 35.5981 -70.8649 26.507 -0.0319068 0.00271185 19.848 -77.9201 19.4176 25.9936 -0.0554971 -0.000968744 -29.4749 -16.4312 8.23436 2.48905 0.190105 3.12053 -28.184 10.7294 -19.1592 3.68274 0 0 3.29726e-15 -9.54166e-15 10 2.55832 1.42109e-14 0 -6.17883e-15 -1.59028e-15 10 3.22368 0.508421 1.97842 4.77083e-15 -6.36111e-15 -3.18055e-15 5.21684 -0.091368 0.999158 -19.9818 0.871897 -2.3964 3.61937 -2.84217e-14 0 -24 -7.95139e-16 -1.90833e-14 2.0521 -1.06581e-14 0 -20 6.36111e-15 -1.27222e-14 3.38211 0.517263 0.756737 4.77083e-15 -6.36111e-15 -3.18055e-15 5.17411 -0.084 0.313895 -20 7.95139e-15 3.18055e-15 3.94947 0 0 -24 4.37326e-15 -9.54166e-15 2.47579 -7.10543e-15 0 -20 1.11319e-14 -1.90833e-14 3.36516 0.537895 -0.128947 4.77083e-15 -6.36111e-15 -3.18055e-15 4.63474 -0.022105 -0.478947 -19.9748 -1.02565 2.81938 3.44238 0 -2.84217e-14 -24 2.38542e-15 -0 2.3881 -1.06581e-14 2.84217e-14 -20 4.77083e-15 -1.27222e-14 3.16105 0.469368 -1.20179 4.77083e-15 -6.36111e-15 -3.18055e-15 4.14105 -0.022105 -1.09053 -19.7815 -3.00948 8.30515 2.75653 0 -2.84217e-14 -24 5.56597e-15 -1.27222e-14 1.74189 0 2.84217e-14 -20 -3.18055e-15 -9.54166e-15 
347.355 87.9434 215.117 27.9504 12.8283 -66.4335 -9.26281 -1.59826 0.0274169 -33.7783 -50.4297 -40.6464 0.0297343 -41.8969 0.018469 0.642309 25.0122 -7.71646 0.350149 -42.3745 0.819996 11.5476 4.70464 21.2726 9.27385 -1.59127 -0.0445736 19.1716 -49.5661 7.02088 0.0522412 -41.8958 0.0566957 1.55756 29.8295 -1.9664 0.216077 -41.556 -0.709486 -15.1808 -9.68476 -16.7616 0.0383617 14.3029 0.0423293 -12.8462 9.12507 19.9209 0.0208838 9.70589 0.00787764 -2.93517 3.02884 4.69779 0.0409621 10.115 0.0228339 -4.80685 5.08291 7.39719 0.0474261 9.71803 0.026991 0.29261 -0.548957 -0.88747 0.0484053 10.3921 0.0363593 0.294324 -0.547558 -0.893121 0.0333631 9.46531 0.0160178 4.10468 -10.1974 -15.9098 -3.19366 6.92906 -0.0139753 5.30376 -14.906 12.8638 -12.7834 -0.00237472 -0.00846484 71.1289 2.44305 52.247 -26.5056 -0.0234896 0.0688577 10.7973 -50.33 -0.859815 -25.9959 0.000366552 0.0513157 16.5602 -27.0928 -22.7721 -2.48905 0.190105 3.12053 28.184 10.7294 19.1592 -3.68274 0 0 1.27783e-14 -7.95139e-16 -10 -2.55832 0 5.68434e-14 6.17883e-15 -1.59028e-15 -10 -3.22368 0.508421 1.97842 -6.36111e-15 0 -3.18055e-15 -5.21684 -0.091368 0.999158 19.9818 0.871897 2.3964 -3.61937 0 5.68434e-14 24 3.18055e-15 6.36111e-15 -2.0521 1.42109e-14 0 20 -1.98785e-15 3.18055e-15 -3.38211 0.517263 0.756737 -6.36111e-15 0 -3.18055e-15 -5.17411 -0.084 0.313895 20 3.18055e-15 6.36111e-15 -3.94947 2.84217e-14 -2.84217e-14 24 -5.56597e-15 1.27222e-14 -2.47579 1.42109e-14 0 20 8.74653e-15 6.36111e-15 -3.36516 0.537895 -0.128947 -6.36111e-15 0 -3.18055e-15 -4.63474 -0.022105 -0.478947 19.9748 -1.02565 -2.81938 -3.44238 0 0 24 1.59028e-15 1.59028e-14 -2.3881 0 0 20 -5.96354e-16 -3.18055e-15 -3.16105 0.469368 -1.20179 -6.36111e-15 0 -3.18055e-15 -4.14105 -0.022105 -1.09053 19.7815 -3.00948 -8.30515 -2.75653 0 -2.84217e-14 24 -1.27222e-14 9.54166e-15 -1.74189 -4.26326e-14 5.68434e-14 20 1.26228e-14 3.18055e-15 3.25012 6.93914 -0.0101355 17.0393 -14.33 -31.5029 12.7761 -0.0155018 -0.0597095 -40.6983 35.5979 -70.7958 26.5071 -0.0314275 0.00286409 19.7075 -77.8511 19.2717 25.9943 -0.0537327 -0.00022317 -29.4887 -16.4309 8.22876 2.48905 0.190105 3.12053 -28.184 10.7294 -19.1592 3.68274 0 -1.42109e-14 -5.3376e-15 -6.36111e-15 10 2.55832 1.42109e-14 0 5.60818e-16 -3.18055e-15 10 3.22368 0.508421 1.97842 4.77083e-15 0 -0 5.21684 -0.091368 0.999158 -19.9818 0.871897 -2.3964 3.61937 0 0 -24 2.5842e-15 -0 2.0521 0 0 -20 1.59028e-15 3.18055e-15 3.38211 0.517263 0.756737 4.77083e-15 0 -0 5.17411 -0.084 0.313895 -20 -6.36111e-15 -3.18055e-15 3.94947 -2.84217e-14 2.84217e-14 -24 -3.57812e-15 -6.36111e-15 2.47579 -3.55271e-15 0 -20 0 3.18055e-15 3.36516 0.537895 -0.128947 4.77083e-15 0 -0 4.63474 -0.022105 -0.478947 -19.9748 -1.02565 2.81938 3.44238 0 2.84217e-14 -24 6.36111e-15 -1.27222e-14 2.3881 1.06581e-14 -2.84217e-14 -20 3.18055e-15 -1.27222e-14 3.16105 0.469368 -1.20179 4.77083e-15 0 -0 4.14105 -0.022105 -1.09053 -19.7815 -3.00948 8.30515 2.75653 0 0 -24 2.38542e-15 -0 1.74189 -7.10543e-15 0 -20 0 -3.18055e-15 
347.352 87.9422 215.125 27.953 12.8171 -66.4656 -9.2629 -1.59782 0.0273617 -33.7493 -50.4368 -40.5908 0.029913 -41.8967 0.0182011 0.629372 25.0146 -7.71614 0.352594 -42.3768 0.81778 11.5649 4.69902 21.2712 9.27381 -1.59088 -0.0449244 19.1785 -49.5506 7.07155 0.0523211 -41.8959 0.0587288 1.57667 29.8132 -1.98623 0.216618 -41.5538 -0.724742 -15.185 -9.66014 -16.757 0.0383958 14.3029 0.042125 -12.8406 9.12238 19.9283 0.0206019 9.7058 0.00793636 -2.93434 3.02866 4.70185 0.040875 10.115 0.0229187 -4.80429 5.08293 7.40101 0.0473574 9.71803 0.0269779 0.291404 -0.548021 -0.88657 0.0482584 10.3922 0.0371011 0.293107 -0.546627 -0.892193 0.0335095 9.46527 0.0159047 4.08817 -10.1866 -15.8844 -3.19374 6.92909 -0.0143999 5.3056 -14.8934 12.9003 -12.7822 -0.001994 -0.00748809 71.1388 2.43017 52.2305 -26.5056 -0.0244096 0.0677859 10.7597 -50.3651 -0.898355 -25.9959 -0.000416843 0.0513849 16.6187 -27.0469 -22.7468 -2.48905 0.190105 3.12053 28.184 10.7294 19.1592 -3.68274 0 5.68434e-14 6.59944e-15 7.95139e-16 -10 -2.55832 0 0 6.73965e-15 1.59028e-15 -10 -3.22368 0.508421 1.97842 1.76556e-31 6.36111e-15 -1.59028e-15 -5.21684 -0.091368 0.999158 19.9818 0.871897 2.3964 -3.61937 0 0 24 0 6.36111e-15 -2.0521 1.42109e-14 -5.68434e-14 20 1.47101e-14 1.27222e-14 -3.38211 0.517263 0.756737 1.76556e-31 6.36111e-15 -1.59028e-15 -5.17411 -0.084 0.313895 20 0 -6.36111e-15 -3.94947 0 0 24 -3.97569e-15 3.18055e-15 -2.47579 -1.42109e-14 5.68434e-14 20 4.37326e-15 6.36111e-15 -3.36516 0.537895 -0.128947 1.76556e-31 6.36111e-15 -1.59028e-15 -4.63474 -0.022105 -0.478947 19.9748 -1.02565 -2.81938 -3.44238 0 0 24 3.18055e-15 1.27222e-14 -2.3881 1.42109e-14 2.84217e-14 20 -3.18055e-15 -3.18055e-15 -3.16105 0.469368 -1.20179 1.76556e-31 6.36111e-15 -1.59028e-15 -4.14105 -0.022105 -1.09053 19.7815 -3.00948 -8.30515 -2.75653 1.42109e-14 0 24 6.36111e-15 -6.36111e-15 -1.74189 -2.84217e-14 0 20 4.17448e-15 3.18055e-15 3.25011 6.93883 -0.0100025 17.011 -14.3324 -31.5028 12.7762 -0.0164608 -0.0595774 -40.7405 35.6278 -70.7625 26.5073 -0.0309815 0.00309671 19.7106 -77.8056 19.2513 25.9951 -0.052199 0.000465959 -29.4894 -16.4302 8.2195 2.48905 0.190105 3.12053 -28.184 10.7294 -19.1592 3.68274 0 -2.84217e-14 9.68886e-15 0 10 2.55832 0 -2.84217e-14 1.3344e-15 1.59028e-15 10 3.22368 0.508421 1.97842 -9.54166e-15 9.54166e-15 3.18055e-15 5.21684 -0.091368 0.999158 -19.9818 0.871897 -2.3964 3.61937 0 -2.84217e-14 -24 2.5842e-15 1.90833e-14 2.0521 0 2.84217e-14 -20 0 9.54166e-15 3.38211 0.517263 0.756737 -9.54166e-15 9.54166e-15 3.18055e-15 5.17411 -0.084 0.313895 -20 4.77083e-15 3.18055e-15 3.94947 2.84217e-14 0 -24 1.19271e-15 -3.18055e-15 2.47579 0 -5.68434e-14 -20 0 3.18055e-15 3.36516 0.537895 -0.128947 -9.54166e-15 9.54166e-15 3.18055e-15 4.63474 -0.022105 -0.478947 -19.9748 -1.02565 2.81938 3.44238 0 2.84217e-14 -24 3.18055e-15 1.27222e-14 2.3881 0 0 -20 3.18055e-15 1.27222e-14 3.16105 0.469368 -1.20179 -9.54166e-15 9.54166e-15 3.18055e-15 4.14105 -0.022105 -1.09053 -19.7815 -3.00948 8.30515 2.75653 2.84217e-14 2.84217e-14 -24 -2.38542e-15 3.18055e-15 1.74189 0 0 -20 -3.18055e-15 9.54166e-15 
